<svg xmlns="http://www.w3.org/2000/svg" width="16" height="16" viewBox="0 0 16 16" fill="none">
  <path d="M3.3335 8.66797H5.3335M1.3335 6.0013L2.66683 6.66797L3.51392 4.12668C3.68877 3.60214 3.7762 3.33986 3.93835 3.14596C4.08155 2.97472 4.26544 2.84218 4.47317 2.76049C4.7084 2.66797 4.98486 2.66797 5.53778 2.66797H10.4625C11.0155 2.66797 11.2919 2.66797 11.5272 2.76049C11.7349 2.84218 11.9188 2.97472 12.062 3.14596C12.2241 3.33986 12.3116 3.60214 12.4864 4.12668L13.3335 6.66797L14.6668 6.0013M10.6668 8.66797H12.6668M4.5335 6.66797H11.4668C12.5869 6.66797 13.147 6.66797 13.5748 6.88596C13.9511 7.0777 14.2571 7.38366 14.4488 7.75999C14.6668 8.18781 14.6668 8.74786 14.6668 9.86797V11.668C14.6668 11.9777 14.6668 12.1326 14.6412 12.2614C14.536 12.7903 14.1225 13.2038 13.5936 13.309C13.4648 13.3346 13.3099 13.3346 13.0002 13.3346H12.6668C11.9305 13.3346 11.3335 12.7377 11.3335 12.0013C11.3335 11.8172 11.1843 11.668 11.0002 11.668H5.00016C4.81607 11.668 4.66683 11.8172 4.66683 12.0013C4.66683 12.7377 4.06988 13.3346 3.3335 13.3346H3.00016C2.69039 13.3346 2.53551 13.3346 2.40671 13.309C1.87779 13.2038 1.46432 12.7903 1.35912 12.2614C1.3335 12.1326 1.3335 11.9777 1.3335 11.668V9.86797C1.3335 8.74786 1.3335 8.18781 1.55148 7.75999C1.74323 7.38366 2.04919 7.0777 2.42552 6.88596C2.85334 6.66797 3.41339 6.66797 4.5335 6.66797Z" stroke="#667085" stroke-width="1.5" stroke-linecap="round" stroke-linejoin="round"/>
</svg>