<svg width="4" height="16" viewBox="0 0 4 16" fill="none" xmlns="http://www.w3.org/2000/svg">
<path d="M2.0013 8.8335C2.46154 8.8335 2.83463 8.4604 2.83463 8.00016C2.83463 7.53993 2.46154 7.16683 2.0013 7.16683C1.54106 7.16683 1.16797 7.53993 1.16797 8.00016C1.16797 8.4604 1.54106 8.8335 2.0013 8.8335Z" stroke="#98A2B3" stroke-width="1.66667" stroke-linecap="round" stroke-linejoin="round"/>
<path d="M2.0013 3.00016C2.46154 3.00016 2.83463 2.62707 2.83463 2.16683C2.83463 1.70659 2.46154 1.3335 2.0013 1.3335C1.54106 1.3335 1.16797 1.70659 1.16797 2.16683C1.16797 2.62707 1.54106 3.00016 2.0013 3.00016Z" stroke="#98A2B3" stroke-width="1.66667" stroke-linecap="round" stroke-linejoin="round"/>
<path d="M2.0013 14.6668C2.46154 14.6668 2.83463 14.2937 2.83463 13.8335C2.83463 13.3733 2.46154 13.0002 2.0013 13.0002C1.54106 13.0002 1.16797 13.3733 1.16797 13.8335C1.16797 14.2937 1.54106 14.6668 2.0013 14.6668Z" stroke="#98A2B3" stroke-width="1.66667" stroke-linecap="round" stroke-linejoin="round"/>
</svg>
