<svg width="28" height="28" viewBox="0 0 28 28" fill="none" xmlns="http://www.w3.org/2000/svg">
<g filter="url(#filter0_dd_3714_59828)">
<path d="M4 8C4 5.79086 5.79086 4 8 4H20C22.2091 4 24 5.79086 24 8V20C24 22.2091 22.2091 24 20 24H8C5.79086 24 4 22.2091 4 20V8Z" fill="white"/>
<path d="M13.9993 14.8335C14.4596 14.8335 14.8327 14.4604 14.8327 14.0002C14.8327 13.5399 14.4596 13.1668 13.9993 13.1668C13.5391 13.1668 13.166 13.5399 13.166 14.0002C13.166 14.4604 13.5391 14.8335 13.9993 14.8335Z" stroke="#667085" stroke-width="1.66667" stroke-linecap="round" stroke-linejoin="round"/>
<path d="M13.9993 9.00016C14.4596 9.00016 14.8327 8.62707 14.8327 8.16683C14.8327 7.70659 14.4596 7.3335 13.9993 7.3335C13.5391 7.3335 13.166 7.70659 13.166 8.16683C13.166 8.62707 13.5391 9.00016 13.9993 9.00016Z" stroke="#667085" stroke-width="1.66667" stroke-linecap="round" stroke-linejoin="round"/>
<path d="M13.9993 20.6668C14.4596 20.6668 14.8327 20.2937 14.8327 19.8335C14.8327 19.3733 14.4596 19.0002 13.9993 19.0002C13.5391 19.0002 13.166 19.3733 13.166 19.8335C13.166 20.2937 13.5391 20.6668 13.9993 20.6668Z" stroke="#667085" stroke-width="1.66667" stroke-linecap="round" stroke-linejoin="round"/>
</g>
<defs>
<filter id="filter0_dd_3714_59828" x="0" y="0" width="28" height="28" filterUnits="userSpaceOnUse" color-interpolation-filters="sRGB">
<feFlood flood-opacity="0" result="BackgroundImageFix"/>
<feColorMatrix in="SourceAlpha" type="matrix" values="0 0 0 0 0 0 0 0 0 0 0 0 0 0 0 0 0 0 127 0" result="hardAlpha"/>
<feMorphology radius="4" operator="dilate" in="SourceAlpha" result="effect1_dropShadow_3714_59828"/>
<feOffset/>
<feComposite in2="hardAlpha" operator="out"/>
<feColorMatrix type="matrix" values="0 0 0 0 0.619608 0 0 0 0 0.466667 0 0 0 0 0.929412 0 0 0 1 0"/>
<feBlend mode="normal" in2="BackgroundImageFix" result="effect1_dropShadow_3714_59828"/>
<feColorMatrix in="SourceAlpha" type="matrix" values="0 0 0 0 0 0 0 0 0 0 0 0 0 0 0 0 0 0 127 0" result="hardAlpha"/>
<feMorphology radius="2" operator="dilate" in="SourceAlpha" result="effect2_dropShadow_3714_59828"/>
<feOffset/>
<feComposite in2="hardAlpha" operator="out"/>
<feColorMatrix type="matrix" values="0 0 0 0 1 0 0 0 0 1 0 0 0 0 1 0 0 0 1 0"/>
<feBlend mode="normal" in2="effect1_dropShadow_3714_59828" result="effect2_dropShadow_3714_59828"/>
<feBlend mode="normal" in="SourceGraphic" in2="effect2_dropShadow_3714_59828" result="shape"/>
</filter>
</defs>
</svg>
