<svg width="16" height="16" viewBox="0 0 16 16" fill="none" xmlns="http://www.w3.org/2000/svg">
<g id="edit-02" clip-path="url(#clip0_2907_3690)">
<path id="Icon" d="M11.9999 6.66622L9.33319 3.99955M1.6665 14.3329L3.92275 14.0822C4.19841 14.0516 4.33624 14.0362 4.46507 13.9945C4.57936 13.9575 4.68814 13.9053 4.78843 13.8391C4.90147 13.7646 4.99953 13.6665 5.19565 13.4704L13.9999 4.66622C14.7362 3.92984 14.7362 2.73593 13.9999 1.99955C13.2635 1.26317 12.0696 1.26317 11.3332 1.99955L2.52899 10.8037C2.33287 10.9999 2.23481 11.0979 2.16026 11.211C2.09413 11.3113 2.04185 11.42 2.00485 11.5343C1.96314 11.6632 1.94783 11.801 1.9172 12.0766L1.6665 14.3329Z" stroke="#667085" stroke-width="1.5" stroke-linecap="round" stroke-linejoin="round"/>
</g>
<defs>
<clipPath id="clip0_2907_3690">
<rect width="16" height="16" fill="white"/>
</clipPath>
</defs>
</svg>
