<svg width="480" height="469" viewBox="0 0 480 469" fill="none" xmlns="http://www.w3.org/2000/svg">
<mask id="mask0_3411_50406" style="mask-type:alpha" maskUnits="userSpaceOnUse" x="0" y="-12" width="480" height="481">
<rect width="480" height="480" transform="translate(0 -11.5)" fill="url(#paint0_radial_3411_50406)"/>
</mask>
<g mask="url(#mask0_3411_50406)">
<g clip-path="url(#clip0_3411_50406)">
<g clip-path="url(#clip1_3411_50406)">
<line x1="0.5" y1="-11.5" x2="0.5" y2="468.5" stroke="#E4E7EC"/>
<line x1="32.5" y1="-11.5" x2="32.5" y2="468.5" stroke="#E4E7EC"/>
<line x1="64.5" y1="-11.5" x2="64.5" y2="468.5" stroke="#E4E7EC"/>
<line x1="96.5" y1="-11.5" x2="96.5" y2="468.5" stroke="#E4E7EC"/>
<line x1="128.5" y1="-11.5" x2="128.5" y2="468.5" stroke="#E4E7EC"/>
<line x1="160.5" y1="-11.5" x2="160.5" y2="468.5" stroke="#E4E7EC"/>
<line x1="192.5" y1="-11.5" x2="192.5" y2="468.5" stroke="#E4E7EC"/>
<line x1="224.5" y1="-11.5" x2="224.5" y2="468.5" stroke="#E4E7EC"/>
<line x1="256.5" y1="-11.5" x2="256.5" y2="468.5" stroke="#E4E7EC"/>
<line x1="288.5" y1="-11.5" x2="288.5" y2="468.5" stroke="#E4E7EC"/>
<line x1="320.5" y1="-11.5" x2="320.5" y2="468.5" stroke="#E4E7EC"/>
<line x1="352.5" y1="-11.5" x2="352.5" y2="468.5" stroke="#E4E7EC"/>
<line x1="384.5" y1="-11.5" x2="384.5" y2="468.5" stroke="#E4E7EC"/>
<line x1="416.5" y1="-11.5" x2="416.5" y2="468.5" stroke="#E4E7EC"/>
<line x1="448.5" y1="-11.5" x2="448.5" y2="468.5" stroke="#E4E7EC"/>
</g>
<rect x="0.5" y="-11" width="479" height="479" stroke="#E4E7EC"/>
<g clip-path="url(#clip2_3411_50406)">
<line y1="20" x2="480" y2="20" stroke="#E4E7EC"/>
<line y1="52" x2="480" y2="52" stroke="#E4E7EC"/>
<line y1="84" x2="480" y2="84" stroke="#E4E7EC"/>
<line y1="116" x2="480" y2="116" stroke="#E4E7EC"/>
<line y1="148" x2="480" y2="148" stroke="#E4E7EC"/>
<line y1="180" x2="480" y2="180" stroke="#E4E7EC"/>
<line y1="212" x2="480" y2="212" stroke="#E4E7EC"/>
<line y1="244" x2="480" y2="244" stroke="#E4E7EC"/>
<line y1="276" x2="480" y2="276" stroke="#E4E7EC"/>
<line y1="308" x2="480" y2="308" stroke="#E4E7EC"/>
<line y1="340" x2="480" y2="340" stroke="#E4E7EC"/>
<line y1="372" x2="480" y2="372" stroke="#E4E7EC"/>
<line y1="404" x2="480" y2="404" stroke="#E4E7EC"/>
<line y1="436" x2="480" y2="436" stroke="#E4E7EC"/>
<line y1="468" x2="480" y2="468" stroke="#E4E7EC"/>
</g>
<rect x="0.5" y="-11" width="479" height="479" stroke="#E4E7EC"/>
</g>
</g>
<defs>
<radialGradient id="paint0_radial_3411_50406" cx="0" cy="0" r="1" gradientUnits="userSpaceOnUse" gradientTransform="translate(240 240) rotate(90) scale(240 240)">
<stop/>
<stop offset="1" stop-opacity="0"/>
</radialGradient>
<clipPath id="clip0_3411_50406">
<rect width="480" height="480" fill="white" transform="translate(0 -11.5)"/>
</clipPath>
<clipPath id="clip1_3411_50406">
<rect y="-11.5" width="480" height="480" fill="white"/>
</clipPath>
<clipPath id="clip2_3411_50406">
<rect y="-11.5" width="480" height="480" fill="white"/>
</clipPath>
</defs>
</svg>
