<svg width="16" height="16" viewBox="0 0 16 16" fill="none" xmlns="http://www.w3.org/2000/svg">
<g id="file-02">
<path id="Icon" d="M9.33317 7.33301H5.33317M6.6665 9.99967H5.33317M10.6665 4.66634H5.33317M13.3332 4.53301V11.4663C13.3332 12.5864 13.3332 13.1465 13.1152 13.5743C12.9234 13.9506 12.6175 14.2566 12.2412 14.4484C11.8133 14.6663 11.2533 14.6663 10.1332 14.6663H5.8665C4.7464 14.6663 4.18635 14.6663 3.75852 14.4484C3.3822 14.2566 3.07624 13.9506 2.88449 13.5743C2.6665 13.1465 2.6665 12.5864 2.6665 11.4663V4.53301C2.6665 3.4129 2.6665 2.85285 2.88449 2.42503C3.07624 2.0487 3.3822 1.74274 3.75852 1.55099C4.18635 1.33301 4.7464 1.33301 5.8665 1.33301H10.1332C11.2533 1.33301 11.8133 1.33301 12.2412 1.55099C12.6175 1.74274 12.9234 2.0487 13.1152 2.42503C13.3332 2.85285 13.3332 3.4129 13.3332 4.53301Z" stroke="#667085" stroke-width="1.5" stroke-linecap="round" stroke-linejoin="round"/>
</g>
</svg>
