<svg width="38" height="38" viewBox="0 0 38 38" fill="none" xmlns="http://www.w3.org/2000/svg">
<g opacity="0.3">
<path d="M19 6C26.1797 6 32 11.8203 32 19C32 26.1797 26.1797 32 19 32C11.8203 32 6 26.1797 6 19C6 11.8203 11.8203 6 19 6Z" stroke="#D92D20" stroke-width="2"/>
</g>
<g opacity="0.1">
<path d="M19 1C28.9411 1 37 9.05887 37 19C37 28.9411 28.9411 37 19 37C9.05887 37 1 28.9411 1 19C1 9.05887 9.05887 1 19 1Z" stroke="#D92D20" stroke-width="2"/>
</g>
<g clip-path="url(#clip0_3807_80770)">
<path d="M18.9993 15.666V18.9993M18.9993 22.3327H19.0077M27.3327 18.9993C27.3327 23.6017 23.6017 27.3327 18.9993 27.3327C14.397 27.3327 10.666 23.6017 10.666 18.9993C10.666 14.397 14.397 10.666 18.9993 10.666C23.6017 10.666 27.3327 14.397 27.3327 18.9993Z" stroke="#D92D20" stroke-width="1.66667" stroke-linecap="round" stroke-linejoin="round"/>
</g>
<defs>
<clipPath id="clip0_3807_80770">
<rect width="20" height="20" fill="white" transform="translate(9 9)"/>
</clipPath>
</defs>
</svg>
