<svg width="16" height="16" viewBox="0 0 16 16" fill="none" xmlns="http://www.w3.org/2000/svg">
<g clip-path="url(#clip0_3927_2882)">
<path d="M12.0002 4.66536V3.46536C12.0002 2.71863 12.0002 2.34526 11.8548 2.06004C11.727 1.80916 11.523 1.60519 11.2722 1.47736C10.9869 1.33203 10.6136 1.33203 9.86683 1.33203H6.1335C5.38676 1.33203 5.01339 1.33203 4.72818 1.47736C4.47729 1.60519 4.27332 1.80916 4.14549 2.06004C4.00016 2.34526 4.00016 2.71863 4.00016 3.46536V4.66536M4.00016 11.9987C3.38018 11.9987 3.07019 11.9987 2.81586 11.9305C2.12567 11.7456 1.58658 11.2065 1.40164 10.5163C1.3335 10.262 1.3335 9.95201 1.3335 9.33203V7.86536C1.3335 6.74526 1.3335 6.18521 1.55148 5.75738C1.74323 5.38106 2.04919 5.0751 2.42552 4.88335C2.85334 4.66536 3.41339 4.66536 4.5335 4.66536H11.4668C12.5869 4.66536 13.147 4.66536 13.5748 4.88335C13.9511 5.0751 14.2571 5.38106 14.4488 5.75738C14.6668 6.18521 14.6668 6.74526 14.6668 7.86536V9.33203C14.6668 9.95201 14.6668 10.262 14.5987 10.5163C14.4137 11.2065 13.8747 11.7456 13.1845 11.9305C12.9301 11.9987 12.6201 11.9987 12.0002 11.9987M10.0002 6.9987H12.0002M6.1335 14.6654H9.86683C10.6136 14.6654 10.9869 14.6654 11.2722 14.52C11.523 14.3922 11.727 14.1882 11.8548 13.9374C12.0002 13.6521 12.0002 13.2788 12.0002 12.532V11.4654C12.0002 10.7186 12.0002 10.3453 11.8548 10.06C11.727 9.80916 11.523 9.60519 11.2722 9.47736C10.9869 9.33203 10.6136 9.33203 9.86683 9.33203H6.1335C5.38676 9.33203 5.01339 9.33203 4.72818 9.47736C4.47729 9.60519 4.27332 9.80916 4.14549 10.06C4.00016 10.3453 4.00016 10.7186 4.00016 11.4654V12.532C4.00016 13.2788 4.00016 13.6521 4.14549 13.9374C4.27332 14.1882 4.47729 14.3922 4.72818 14.52C5.01339 14.6654 5.38676 14.6654 6.1335 14.6654Z" stroke="#667085" stroke-width="1.5" stroke-linecap="round" stroke-linejoin="round"/>
</g>
<defs>
<clipPath id="clip0_3927_2882">
<rect width="16" height="16" fill="white"/>
</clipPath>
</defs>
</svg>
