<svg width="52" height="53" viewBox="0 0 52 53" fill="none" xmlns="http://www.w3.org/2000/svg">
<g filter="url(#filter0_dii_3424_86230)">
<path d="M2 11.5C2 5.97715 6.47715 1.5 12 1.5H40C45.5229 1.5 50 5.97715 50 11.5V39.5C50 45.0229 45.5228 49.5 40 49.5H12C6.47715 49.5 2 45.0228 2 39.5V11.5Z" fill="white"/>
<path d="M12 2H40C45.2467 2 49.5 6.25329 49.5 11.5V39.5C49.5 44.7467 45.2467 49 40 49H12C6.7533 49 2.5 44.7467 2.5 39.5V11.5C2.5 6.2533 6.75329 2 12 2Z" stroke="#E4E7EC"/>
<path d="M35 34.5L31.5001 31M34 25C34 29.6944 30.1944 33.5 25.5 33.5C20.8056 33.5 17 29.6944 17 25C17 20.3056 20.8056 16.5 25.5 16.5C30.1944 16.5 34 20.3056 34 25Z" stroke="#344054" stroke-width="2" stroke-linecap="round" stroke-linejoin="round"/>
</g>
<defs>
<filter id="filter0_dii_3424_86230" x="0" y="0.5" width="52" height="52" filterUnits="userSpaceOnUse" color-interpolation-filters="sRGB">
<feFlood flood-opacity="0" result="BackgroundImageFix"/>
<feColorMatrix in="SourceAlpha" type="matrix" values="0 0 0 0 0 0 0 0 0 0 0 0 0 0 0 0 0 0 127 0" result="hardAlpha"/>
<feOffset dy="1"/>
<feGaussianBlur stdDeviation="1"/>
<feComposite in2="hardAlpha" operator="out"/>
<feColorMatrix type="matrix" values="0 0 0 0 0.0627451 0 0 0 0 0.0941176 0 0 0 0 0.156863 0 0 0 0.05 0"/>
<feBlend mode="normal" in2="BackgroundImageFix" result="effect1_dropShadow_3424_86230"/>
<feBlend mode="normal" in="SourceGraphic" in2="effect1_dropShadow_3424_86230" result="shape"/>
<feColorMatrix in="SourceAlpha" type="matrix" values="0 0 0 0 0 0 0 0 0 0 0 0 0 0 0 0 0 0 127 0" result="hardAlpha"/>
<feOffset dy="-2"/>
<feComposite in2="hardAlpha" operator="arithmetic" k2="-1" k3="1"/>
<feColorMatrix type="matrix" values="0 0 0 0 0.0627451 0 0 0 0 0.0941176 0 0 0 0 0.156863 0 0 0 0.05 0"/>
<feBlend mode="normal" in2="shape" result="effect2_innerShadow_3424_86230"/>
<feColorMatrix in="SourceAlpha" type="matrix" values="0 0 0 0 0 0 0 0 0 0 0 0 0 0 0 0 0 0 127 0" result="hardAlpha"/>
<feMorphology radius="1" operator="erode" in="SourceAlpha" result="effect3_innerShadow_3424_86230"/>
<feOffset/>
<feComposite in2="hardAlpha" operator="arithmetic" k2="-1" k3="1"/>
<feColorMatrix type="matrix" values="0 0 0 0 0.0627451 0 0 0 0 0.0941176 0 0 0 0 0.156863 0 0 0 0.18 0"/>
<feBlend mode="normal" in2="effect2_innerShadow_3424_86230" result="effect3_innerShadow_3424_86230"/>
</filter>
</defs>
</svg>
